<?xml version="1.0" encoding="UTF-8"?>
<svg width="800px" height="600px" viewBox="0 0 800 600" version="1.1" xmlns="http://www.w3.org/2000/svg">
    <g stroke="none" stroke-width="1" fill="none" fill-rule="evenodd">
        <circle fill="#FFFFFF" opacity="0.1" cx="400" cy="300" r="250"/>
        <path d="M400,100 C517.385815,100 612,194.614185 612,312 C612,429.385815 517.385815,524 400,524 C282.614185,524 188,429.385815 188,312 C188,194.614185 282.614185,100 400,100 Z" fill="#FFFFFF" opacity="0.05"/>
        <path d="M400,150 C494.274566,150 572,227.725434 572,322 C572,416.274566 494.274566,494 400,494 C305.725434,494 228,416.274566 228,322 C228,227.725434 305.725434,150 400,150 Z" fill="#FFFFFF" opacity="0.1"/>
        <path d="M400,200 C471.045695,200 532,260.954305 532,332 C532,403.045695 471.045695,464 400,464 C328.954305,464 268,403.045695 268,332 C268,260.954305 328.954305,200 400,200 Z" fill="#FFFFFF" opacity="0.15"/>
        <path d="M400,250 C447.777778,250 492,294.222222 492,342 C492,389.777778 447.777778,434 400,434 C352.222222,434 308,389.777778 308,342 C308,294.222222 352.222222,250 400,250 Z" fill="#FFFFFF" opacity="0.2"/>
        <path d="M400,300 C424.183486,300 444,319.816514 444,344 C444,368.183486 424.183486,388 400,388 C375.816514,388 356,368.183486 356,344 C356,319.816514 375.816514,300 400,300 Z" fill="#FFFFFF" opacity="0.25"/>
        <path d="M400,350 C400.552285,350 401,350.447715 401,351 L401,353 C401,353.552285 400.552285,354 400,354 C399.447715,354 399,353.552285 399,353 L399,351 C399,350.447715 399.447715,350 400,350 Z" fill="#FFFFFF" opacity="0.3"/>
    </g>
</svg> 